<svg width="600" height="600" xmlns="http://www.w3.org/2000/svg">

 <g>
  <title>Layer 1</title>
  <rect id="svg_1" height="544" width="540" y="28.5" x="32" stroke="#000" fill="#ff0000"/>
  <path id="svg_2" d="m95,145.5l54,-30.5l361,306l-36,86l-113,-26l-266,-335.5z" opacity="NaN" stroke="#000" fill="#ffffff"/>
  <path transform="rotate(3.87406 449.593 151.279)" stroke="#000" id="svg_3" d="m458.26078,90.18786c0,0 61.75777,47.47474 61.75777,46.77658c0,0.69816 -8.66776,76.09922 -8.66776,75.40106c0,0.69816 -132.18329,-101.23291 -132.18329,-101.93106c0,0.69816 79.09328,-20.24658 79.09328,-20.24658z" opacity="NaN" fill="#ffffff"/>
  <path stroke="#000" id="svg_4" d="m84,466.55926c0,0 16.71429,-92.78604 16.71429,-93.55926c0,0.77322 127.28571,110.57003 127.28571,109.79682c0,0.77322 -96.42857,23.96973 -96.42857,23.19651c0,0.77322 -47.57143,-39.43407 -47.57143,-39.43407z" opacity="NaN" fill="#ffffff"/>
 </g>
</svg>